<?xml version='1.0' encoding='iso-8859-1'?>
<svg version="1.1" fill="#64d323" xmlns="http://www.w3.org/2000/svg" viewBox="0 0 487.4 487.4" xmlns:xlink="http://www.w3.org/1999/xlink" enable-background="new 0 0 487.4 487.4">
  <g>
    <g>
      <path d="M428.3,89.7h-89.5L359.9,15c0.5-3.2,0.4-13.5-10.4-13.5H139c-4.2,0-13.1,4.1-10.4,13.5l21.1,74.7H60.1L0,485.9h487.4    L428.3,89.7z M334.9,22.3l-18.6,67.4H171.1l-18.7-67.4H334.9z M77.8,110.4h331.9l53.9,355.7H23.8L77.8,110.4z"/>
      <polygon points="235.4,214.1 207.4,214.1 148.3,277.4 148.3,214.1 127.5,214.1 127.5,343.8 149.3,343.8 149.3,307.5 168,286.7     210.5,342.7 236.4,342.7 183.5,270.1   "/>
      <path d="m345.3,280.6v35.2c-8.3,5.2-18.7,8.3-31.1,8.3-12.4,0-22.8-4.1-31.1-12.4-8.3-8.3-12.4-19.7-12.4-33.2s4.1-24.9 13.5-33.2c9.3-8.3 19.7-12.4 33.2-12.4 6.2,0 12.4,0 17.6,2.1s10.4,5.2 15.6,9.3l12.4-16.6c-12.4-11.4-28-16.6-46.7-16.6s-34.2,7.3-47.7,19.7c-13.5,12.4-19.7,28-19.7,47.7s7.3,35.3 19.7,47.7 29,18.7 47.7,18.7c21.8,0 39.4-6.2 51.9-19.7v-44.6h-21.8-1.1z"/>
    </g>
  </g>
</svg>
